<mxfile host="65bd71144e">
    <diagram id="C5RBs43oDa-KdzZeNtuy" name="Page-1">
        <mxGraphModel dx="824" dy="387" grid="1" gridSize="10" guides="1" tooltips="1" connect="1" arrows="1" fold="1" page="1" pageScale="1" pageWidth="827" pageHeight="1169" math="0" shadow="0">
            <root>
                <mxCell id="WIyWlLk6GJQsqaUBKTNV-0"/>
                <mxCell id="WIyWlLk6GJQsqaUBKTNV-1" parent="WIyWlLk6GJQsqaUBKTNV-0"/>
                <mxCell id="9ooVhS_tgrzWWUu7JEqA-0" value="fib" style="swimlane;fontStyle=1;align=center;verticalAlign=middle;childLayout=stackLayout;horizontal=1;startSize=29;horizontalStack=0;resizeParent=1;resizeParentMax=0;resizeLast=0;collapsible=0;marginBottom=0;html=1;" parent="WIyWlLk6GJQsqaUBKTNV-1" vertex="1">
                    <mxGeometry x="344" y="200" width="155" height="59" as="geometry"/>
                </mxCell>
                <mxCell id="9ooVhS_tgrzWWUu7JEqA-3" value="Calculate Fibonacci Series" style="text;html=1;align=center;verticalAlign=middle;resizable=0;points=[];autosize=1;" parent="9ooVhS_tgrzWWUu7JEqA-0" vertex="1">
                    <mxGeometry y="29" width="155" height="30" as="geometry"/>
                </mxCell>
                <mxCell id="9ooVhS_tgrzWWUu7JEqA-5" value="greater" style="swimlane;fontStyle=1;align=center;verticalAlign=middle;childLayout=stackLayout;horizontal=1;startSize=29;horizontalStack=0;resizeParent=1;resizeParentMax=0;resizeLast=0;collapsible=0;marginBottom=0;html=1;" parent="WIyWlLk6GJQsqaUBKTNV-1" vertex="1">
                    <mxGeometry x="316.5" y="330" width="210" height="80" as="geometry"/>
                </mxCell>
                <mxCell id="9ooVhS_tgrzWWUu7JEqA-6" value="Find out greater number out of two" style="text;html=1;align=center;verticalAlign=middle;spacingLeft=4;spacingRight=4;overflow=hidden;rotatable=0;points=[[0,0.5],[1,0.5]];portConstraint=eastwest;" parent="9ooVhS_tgrzWWUu7JEqA-5" vertex="1">
                    <mxGeometry y="29" width="210" height="51" as="geometry"/>
                </mxCell>
                <mxCell id="9ooVhS_tgrzWWUu7JEqA-8" style="edgeStyle=orthogonalEdgeStyle;rounded=0;orthogonalLoop=1;jettySize=auto;html=1;" parent="WIyWlLk6GJQsqaUBKTNV-1" source="9ooVhS_tgrzWWUu7JEqA-3" target="9ooVhS_tgrzWWUu7JEqA-5" edge="1">
                    <mxGeometry relative="1" as="geometry"/>
                </mxCell>
                <mxCell id="9ooVhS_tgrzWWUu7JEqA-12" value="Parent Class" style="text;html=1;align=center;verticalAlign=middle;resizable=0;points=[];autosize=1;strokeColor=none;fillColor=none;" parent="WIyWlLk6GJQsqaUBKTNV-1" vertex="1">
                    <mxGeometry x="344" y="170" width="90" height="30" as="geometry"/>
                </mxCell>
                <mxCell id="9ooVhS_tgrzWWUu7JEqA-13" value="Child Class" style="text;html=1;align=center;verticalAlign=middle;resizable=0;points=[];autosize=1;" parent="WIyWlLk6GJQsqaUBKTNV-1" vertex="1">
                    <mxGeometry x="316.5" y="300" width="80" height="30" as="geometry"/>
                </mxCell>
            </root>
        </mxGraphModel>
    </diagram>
</mxfile>